<?xml version="1.0" standalone="no"?>
<!DOCTYPE svg PUBLIC "-//W3C//DTD SVG 20010904//EN"
 "http://www.w3.org/TR/2001/REC-SVG-20010904/DTD/svg10.dtd">
<svg version="1.0" xmlns="http://www.w3.org/2000/svg"
 width="200.000000pt" height="200.000000pt" viewBox="0 0 200.000000 200.000000"
 preserveAspectRatio="xMidYMid meet">

<g transform="translate(0.000000,200.000000) scale(0.100000,-0.100000)"
fill="#000000" stroke="none">
<path d="M797 1633 c-12 -11 -8 -20 19 -53 15 -17 25 -32 23 -33 -25 -17 -72
-27 -128 -27 -54 0 -75 -5 -101 -23 -61 -41 -75 -77 -79 -215 -4 -172 3 -225
40 -267 17 -19 45 -40 64 -46 18 -7 36 -21 38 -31 7 -26 57 -25 64 2 5 19 14
20 173 20 159 0 168 -1 173 -20 3 -12 14 -20 26 -20 11 0 25 9 31 20 6 11 18
20 28 20 28 0 81 38 102 72 18 30 20 51 20 208 0 157 -2 178 -20 208 -34 56
-73 72 -173 72 -61 0 -98 5 -119 16 l-30 16 26 27 c55 58 20 79 -38 22 l-42
-41 -39 40 c-40 41 -47 45 -58 33z m329 -207 l34 -34 0 -155 c0 -229 -3 -231
-307 -225 l-193 3 -32 33 -33 32 -3 141 c-4 153 3 186 46 219 23 19 41 20 239
20 l215 0 34 -34z m122 -119 c4 -22 -27 -35 -38 -16 -10 15 7 42 24 36 6 -2
12 -11 14 -20z m2 -67 c0 -13 -7 -20 -18 -20 -24 0 -32 8 -25 26 8 22 43 17
43 -6z m-3 -56 c9 -23 -13 -40 -32 -24 -12 10 -13 16 -4 26 15 18 28 18 36 -2z"/>
<path d="M663 1418 c-20 -9 -51 -64 -42 -72 2 -2 26 16 54 40 37 33 44 44 30
43 -11 0 -30 -5 -42 -11z"/>
<path d="M817 1353 c-11 -11 -8 -191 3 -198 14 -9 164 79 168 98 2 9 -25 31
-77 61 -87 50 -85 49 -94 39z"/>
<path d="M190 735 l0 -105 29 0 c26 0 30 4 33 33 3 28 7 32 36 35 26 3 32 8
32 27 0 19 -6 24 -32 27 -52 5 -47 28 6 28 44 0 46 1 46 30 l0 30 -75 0 -75 0
0 -105z"/>
<path d="M370 735 l0 -105 35 0 c33 0 35 2 35 36 0 31 3 35 23 32 17 -2 23
-11 25 -35 3 -29 7 -33 33 -33 28 0 29 1 29 49 0 28 -5 53 -11 57 -6 3 -8 17
-4 31 4 16 0 34 -10 49 -14 22 -23 24 -85 24 l-70 0 0 -105z m98 32 c2 -10 -3
-17 -12 -17 -10 0 -16 9 -16 21 0 24 23 21 28 -4z"/>
<path d="M600 820 c-16 -16 -20 -33 -20 -89 0 -77 10 -95 61 -106 47 -11 97 3
115 30 23 36 16 152 -11 171 -30 22 -121 18 -145 -6z m84 -36 c12 -4 16 -20
16 -55 0 -46 -2 -49 -25 -49 -23 0 -25 3 -25 48 0 59 5 67 34 56z"/>
<path d="M807 833 c-4 -3 -7 -51 -7 -105 l0 -98 35 0 35 0 0 51 0 51 25 -30
c14 -17 25 -39 25 -51 0 -17 6 -21 30 -21 l30 0 0 105 0 105 -30 0 c-28 0 -30
-3 -30 -37 l-1 -38 -33 38 c-31 34 -63 47 -79 30z"/>
<path d="M1012 813 c2 -22 9 -29 31 -31 27 -3 27 -4 27 -78 l0 -74 30 0 30 0
0 75 0 75 30 0 c27 0 30 3 30 30 l0 30 -91 0 -90 0 3 -27z"/>
<path d="M1220 735 l0 -105 75 0 c73 0 75 1 75 25 0 23 -4 25 -45 25 -33 0
-45 4 -45 15 0 10 11 15 35 15 31 0 35 3 35 25 0 22 -4 25 -35 25 -19 0 -35 5
-35 10 0 6 20 10 45 10 43 0 45 1 45 30 l0 30 -75 0 -75 0 0 -105z"/>
<path d="M1410 735 l0 -105 30 0 c29 0 30 1 30 52 l0 51 24 -22 c14 -13 26
-35 28 -50 2 -21 9 -27 36 -29 l32 -3 0 106 0 106 -32 -3 c-27 -2 -34 -8 -38
-31 l-5 -28 -29 30 c-17 17 -40 31 -53 31 -23 0 -23 -2 -23 -105z"/>
<path d="M1630 735 l0 -105 71 0 c104 0 109 5 109 100 0 99 -11 110 -112 110
l-68 0 0 -105z m115 -5 c0 -39 -3 -45 -22 -48 -21 -3 -23 0 -23 48 0 48 2 51
23 48 19 -3 22 -9 22 -48z"/>
<path d="M497 573 c-4 -3 -7 -51 -7 -105 l0 -98 35 0 c32 0 35 2 35 30 0 28 2
30 38 30 50 0 62 14 62 71 0 62 -22 79 -101 79 -30 0 -59 -3 -62 -7z m103 -73
c0 -13 -7 -20 -20 -20 -13 0 -20 7 -20 20 0 13 7 20 20 20 13 0 20 -7 20 -20z"/>
<path d="M712 564 c-20 -13 -22 -24 -22 -93 0 -96 9 -106 90 -106 81 0 90 11
90 105 0 62 -4 80 -18 93 -24 22 -110 23 -140 1z m93 -94 c0 -39 -3 -45 -22
-48 -21 -3 -23 0 -23 48 0 48 2 51 23 48 19 -3 22 -9 22 -48z"/>
<path d="M910 476 l0 -106 85 0 85 0 0 55 c0 54 0 55 -30 55 -27 0 -30 -3 -30
-30 0 -23 -4 -30 -20 -30 -17 0 -19 8 -22 78 l-3 77 -32 3 -33 3 0 -105z"/>
<path d="M1110 550 c0 -23 4 -30 20 -30 17 0 20 -7 20 -50 0 -43 -3 -50 -20
-50 -15 0 -20 -7 -20 -25 0 -24 2 -25 75 -25 73 0 75 1 75 25 0 18 -5 25 -20
25 -17 0 -20 7 -20 49 0 41 3 50 21 54 15 4 20 12 17 29 -3 21 -8 23 -75 26
l-73 3 0 -31z"/>
<path d="M1394 526 c-3 -7 -4 -38 -2 -67 l3 -54 88 -3 87 -3 0 71 0 70 -85 0
c-63 0 -87 -4 -91 -14z m69 -3 c-13 -2 -33 -2 -45 0 -13 2 -3 4 22 4 25 0 35
-2 23 -4z m54 1 c-3 -3 -12 -4 -19 -1 -8 3 -5 6 6 6 11 1 17 -2 13 -5z m40 0
c-3 -3 -12 -4 -19 -1 -8 3 -5 6 6 6 11 1 17 -2 13 -5z m3 -54 l0 -40 -80 0
-80 0 0 40 0 40 80 0 80 0 0 -40z m-97 -57 c-13 -2 -33 -2 -45 0 -13 2 -3 4
22 4 25 0 35 -2 23 -4z m54 1 c-3 -3 -12 -4 -19 -1 -8 3 -5 6 6 6 11 1 17 -2
13 -5z m40 0 c-3 -3 -12 -4 -19 -1 -8 3 -5 6 6 6 11 1 17 -2 13 -5z"/>
<path d="M1470 471 c0 -14 5 -19 15 -14 17 6 15 25 -3 31 -7 2 -12 -5 -12 -17z"/>
</g>
</svg>
